<?xml version="1.0" encoding="iso-8859-1"?>
<!-- Generator: Adobe Illustrator 17.1.0, SVG Export Plug-In . SVG Version: 6.00 Build 0)  -->
<!DOCTYPE svg PUBLIC "-//W3C//DTD SVG 1.1//EN" "http://www.w3.org/Graphics/SVG/1.1/DTD/svg11.dtd">
<svg version="1.1" id="Capa_1" xmlns="http://www.w3.org/2000/svg" xmlns:xlink="http://www.w3.org/1999/xlink" x="0px" y="0px"
	 viewBox="0 0 233.622 233.622" style="enable-background:new 0 0 233.622 233.622;" xml:space="preserve">
<path d="M197.836,229.783H36.076c-2.209,0-4-1.791-4-4V124.824H4c-1.617,0-3.075-0.974-3.695-2.468
	c-0.619-1.494-0.278-3.214,0.864-4.358L113.971,5.013c0.751-0.752,1.77-1.174,2.831-1.174s2.08,0.422,2.831,1.174L232.205,117.77
	c0.867,0.733,1.417,1.83,1.417,3.055c0,2.209-1.79,4-4,4c-0.004,0.001-0.012,0.001-0.02,0h-27.767v100.959
	C201.836,227.992,200.045,229.783,197.836,229.783z M110.566,221.783h83.271V120.824c0-2.209,1.791-4,4-4h22.121L116.802,13.5
	L13.646,116.824h22.43c2.209,0,4,1.791,4,4v100.959h17.323v-86.279c0-2.209,1.791-4,4-4h45.167c2.209,0,4,1.791,4,4V221.783z
	 M65.399,221.783h37.167v-82.279H65.399V221.783z M172.204,177.943h-38.438c-2.209,0-4-1.791-4-4v-38.438c0-2.209,1.791-4,4-4
	h38.438c2.209,0,4,1.791,4,4v38.438C176.204,176.152,174.413,177.943,172.204,177.943z M137.767,169.943h30.438v-30.438h-30.438
	V169.943z"/>
<g>
</g>
<g>
</g>
<g>
</g>
<g>
</g>
<g>
</g>
<g>
</g>
<g>
</g>
<g>
</g>
<g>
</g>
<g>
</g>
<g>
</g>
<g>
</g>
<g>
</g>
<g>
</g>
<g>
</g>
</svg>
